<svg id="Capa_1" data-name="Capa 1" xmlns="http://www.w3.org/2000/svg" viewBox="0 0 595.28 841.89"><defs><style>.cls-1{fill:#fff;}</style></defs><title>logo_college</title><path id="Trazado_2" data-name="Trazado 2" class="cls-1" d="M297.62,167.46C281.9,220.63,195.74,262,110.67,253.58l1.34,283s6.31,137.88,185.63,137.88h0c179.34,0,185.63-137.88,185.63-137.88l1.33-283C399.51,262,313.35,220.62,297.62,167.46Zm43.53,375.27a187.8,187.8,0,0,0-27.06-31.57l-58.64-56.38-5.64,5.64v41.16a179.09,179.09,0,0,0,4.51,41.15H218.8a251,251,0,0,0,3.39-41.15V376.42a253.13,253.13,0,0,0-3.39-40.59h35.52a185.93,185.93,0,0,0-4.51,40.59v58.07L313.52,368a290.94,290.94,0,0,0,25.37-32.13H375a172.08,172.08,0,0,0-31,26.5l-70.48,73.29L358,517.37a199.32,199.32,0,0,0,32.7,25.37Z"/></svg>